<?xml version="1.0" encoding="UTF-8"?>
<svg id="Layer_1" xmlns="http://www.w3.org/2000/svg" version="1.1" viewBox="0 0 64 64">
  <rect width="64" height="64" rx="14" ry="14" style="fill: #120f1c;"/>
  <path d="M32,10.301c-14.052,0-21.618,9.728-21.618,19.456,0,2.702,2.162,4.324,5.404,4.324h32.427c3.243,0,5.404-1.621,5.404-4.324,0-9.728-7.566-19.456-21.618-19.456Z" style="fill: #f3ede7;"/>
  <path d="M32,16.787c-7.026,0-12.43,4.864-14.052,10.809h28.103c-1.621-5.945-7.026-10.809-14.052-10.809Z" style="fill: #8b5cf6;"/>
  <path d="M20.11,36.243h5.404l-3.783,7.566h4.864l-5.404,9.728,2.162-7.566h-4.864l1.621-9.728ZM29.838,36.243h5.404l-3.783,8.647h4.864l-5.404,10.809,2.162-8.647h-4.864l1.621-10.809ZM40.647,36.243h4.864l-3.243,7.026h3.783l-4.864,8.107,1.621-5.945h-3.783l1.621-9.188Z" style="fill: #ffdf5a;"/>
</svg>